# xmcd
#
# Track frame offsets:
# 183
# 13625
# 30160
# 44100
# 60693
# 74930
# 92180
# 102523
# 113253
# 123680
# 134705
# 161163
# 174063
# 189238
# 203963
# 221103
# 241293
#
# Disc length: 3469 seconds
#
#
# Revision: 0
# Processed by: cddbd v1.5.1PL0 Copyright (c) Steve Scherf et al.
# Submitted via: FreeRIP 2.90 
#
DISCID=fc0d8b11
DTITLE=Various Artist - Christmas In The Valley Vol 6
DYEAR=1900
DGENRE=Country
TTITLE0=Christmas In The Valley - Wayne Rostad
TTITLE1=The Christmas Congs - Colleen Peterson
TTITLE2=Winter Wonderland - Bobby Lalonde
TTITLE3=Have Yourself A Merry Little Christmas - Chris McCann
TTITLE4=Old Toy Trains - South Mountai
TTITLE5=I'll Be Home For Christmas - Neville Wells
TTITLE6=Santa Bring My Baby Back (To Me) - Hugh Scott
TTITLE7=Jingle Bell Rock - Sneezy Waters
TTITLE8=Santa Claus Is Coming To Town - Charlie Major
TTITLE9=I Believe In Santa Claus - Wayne Rostad and The Forest Ridge Gang
TTITLE10=Mary's Boy Chile/Oh My Lord - Ted Daigle and The Christmas In The Valley Singers
TTITLE11=One Bright Star - Bruce Golden
TTITLE12=Silent Night - Barry Brown and Terry Carisse
TTITLE13=Beautiful Star Of Bethlehem - The Family Brown
TTITLE14=Momma Mary The Mercey Brothers
TTITLE15=Do You Hear What I Hear - Terry Tufts
TTITLE16=Come All Ye Faithful - Ted Gerow and The Christmas in The Valley Players
EXTD=
EXTT0=
EXTT1=
EXTT2=
EXTT3=
EXTT4=
EXTT5=
EXTT6=
EXTT7=
EXTT8=
EXTT9=
EXTT10=
EXTT11=
EXTT12=
EXTT13=
EXTT14=
EXTT15=
EXTT16=
PLAYORDER=
